<svg xmlns="http://www.w3.org/2000/svg" width="48" height="48" viewBox="0 0 48 48"><g transform="translate(0 -1004.362)"><circle cx="24" cy="1028.362" r="24" fill="#ef4c45" fill-rule="evenodd"/><path fill="#df2209" style="line-height:normal;text-indent:0;text-align:start;text-decoration-line:none;text-decoration-style:solid;text-decoration-color:#000;text-transform:none;block-progression:tb;isolation:auto;mix-blend-mode:normal" d="M 21.894531 47.894531 A 23.999992 23.999992 0 0 0 24 48 A 23.999992 23.999992 0 0 0 25.697266 47.939453 A 23.999992 23.999992 0 0 0 28.080078 47.650391 A 23.999992 23.999992 0 0 0 30.419922 47.125 A 23.999992 23.999992 0 0 0 32.697266 46.369141 A 23.999992 23.999992 0 0 0 34.886719 45.388672 A 23.999992 23.999992 0 0 0 36.966797 44.195312 A 23.999992 23.999992 0 0 0 38.917969 42.800781 A 23.999992 23.999992 0 0 0 40.720703 41.216797 A 23.999992 23.999992 0 0 0 42.355469 39.460938 A 23.999992 23.999992 0 0 0 43.808594 37.550781 A 23.999992 23.999992 0 0 0 45.0625 35.505859 A 23.999992 23.999992 0 0 0 46.105469 33.345703 A 23.999992 23.999992 0 0 0 46.927734 31.091797 A 23.999992 23.999992 0 0 0 47.521484 28.767578 A 23.999992 23.999992 0 0 0 47.880859 26.396484 A 23.999992 23.999992 0 0 0 48 24 A 23.999992 23.999992 0 0 0 47.962891 22.957031 L 37.505859 12.5 A 0.50005 0.50005 0 0 0 37.005859 12 L 33.992188 12 L 32.5 10.507812 A 0.50005 0.50005 0 0 0 31.992188 10 A 0.50005 0.50005 0 0 0 31.5 10.507812 L 31.5 12 L 17.992188 12 L 16.5 10.507812 A 0.50005 0.50005 0 0 0 15.992188 10 A 0.50005 0.50005 0 0 0 15.5 10.507812 L 15.5 12 L 10.994141 12 A 0.50005 0.50005 0 0 0 10.494141 12.5 L 10.494141 17 L 11.494141 18 L 11 18 A 0.50004994 0.50004994 0 0 0 10.5 18.5 L 10.5 36.5 A 0.50004994 0.50004994 0 0 0 11 37 L 21.894531 47.894531 z " color="#000" font-family="sans-serif" font-weight="400" transform="translate(0 1004.362)"/><path fill="#fff" d="M 15.992187,1014.3622 A 0.50005,0.50005 0 0 0 15.5,1014.87 l 0,1.4922 -4.505859,0 a 0.50005,0.50005 0 0 0 -0.5,0.5 l 0,4.5 1,0 0,-4 4.005859,0 0,1.0918 c -0.579028,0.2085 -1,0.7614 -1,1.4082 0,0.8225 0.677495,1.5 1.5,1.5 0.822505,0 1.5,-0.6775 1.5,-1.5 0,-0.6468 -0.420972,-1.1997 -1,-1.4082 l 0,-1.0918 15,0 0,1.0918 c -0.579027,0.2085 -1,0.7614 -1,1.4082 0,0.8225 0.677496,1.5 1.5,1.5 0.822504,0 1.5,-0.6775 1.5,-1.5 0,-0.6468 -0.420972,-1.1997 -1,-1.4082 l 0,-1.0918 4.005859,0 0,4 1,0 0,-4.5 a 0.50005,0.50005 0 0 0 -0.5,-0.5 l -4.505859,0 0,-1.4922 A 0.50005,0.50005 0 0 0 31.992187,1014.3622 0.50005,0.50005 0 0 0 31.5,1014.87 l 0,1.4922 -15,0 0,-1.4922 a 0.50005,0.50005 0 0 0 -0.507813,-0.5078 z m -0.04687,5.0098 a 0.50005,0.50005 0 0 0 0.107422,0 c 0.254589,0.027 0.447266,0.227 0.447266,0.4902 0,0.2821 -0.217935,0.5 -0.5,0.5 -0.282065,0 -0.5,-0.2179 -0.5,-0.5 0,-0.2625 0.191708,-0.4628 0.445312,-0.4902 z m 16,0 a 0.50005,0.50005 0 0 0 0.107422,0 c 0.254589,0.027 0.447266,0.227 0.447266,0.4902 0,0.2821 -0.217935,0.5 -0.5,0.5 -0.282064,0 -0.5,-0.2179 -0.5,-0.5 0,-0.2625 0.191708,-0.4628 0.445312,-0.4902 z M 11,1022.3622 a 0.50004994,0.50004994 0 0 0 -0.5,0.5 l 0,18 a 0.50004994,0.50004994 0 0 0 0.5,0.5 l 26,0 a 0.50004994,0.50004994 0 0 0 0.5,-0.5 l 0,-18 a 0.50004994,0.50004994 0 0 0 -0.5,-0.5 l -26,0 z m 0.5,1 25,0 0,17 -25,0 0,-17 z m 9.5,1 a 0.50004997,0.50004997 0 0 0 -0.5,0.5 l 0,2 a 0.50004997,0.50004997 0 0 0 0.5,0.5 l 2,0 a 0.50004997,0.50004997 0 0 0 0.5,-0.5 l 0,-2 a 0.50004997,0.50004997 0 0 0 -0.5,-0.5 l -2,0 z m 4,0 a 0.50004997,0.50004997 0 0 0 -0.5,0.5 l 0,2 a 0.50004997,0.50004997 0 0 0 0.5,0.5 l 2,0 a 0.50004997,0.50004997 0 0 0 0.5,-0.5 l 0,-2 a 0.50004997,0.50004997 0 0 0 -0.5,-0.5 l -2,0 z m 4,0 a 0.50004997,0.50004997 0 0 0 -0.5,0.5 l 0,2 a 0.50004997,0.50004997 0 0 0 0.5,0.5 l 2,0 a 0.50004997,0.50004997 0 0 0 0.5,-0.5 l 0,-2 a 0.50004997,0.50004997 0 0 0 -0.5,-0.5 l -2,0 z m 4,0 a 0.50004997,0.50004997 0 0 0 -0.5,0.5 l 0,2 a 0.50004997,0.50004997 0 0 0 0.5,0.5 l 2,0 a 0.50004997,0.50004997 0 0 0 0.5,-0.5 l 0,-2 a 0.50004997,0.50004997 0 0 0 -0.5,-0.5 l -2,0 z m -14.013672,0.6836 a 0.50005,0.50005 0 0 0 -0.34375,0.1484 l -0.97461,0.9649 -0.312499,-0.3086 a 0.50005,0.50005 0 1 0 -0.703125,0.7109 l 0.664062,0.6563 a 0.50005,0.50005 0 0 0 0.703125,0 l 1.326172,-1.3125 a 0.50005,0.50005 0 0 0 -0.359375,-0.8594 z m -5.486328,0.3164 0,1 1,0 0,-1 -1,0 z m 8,0 1,0 0,1 -1,0 0,-1 z m 4,0 1,0 0,1 -1,0 0,-1 z m 4,0 1,0 0,1 -1,0 0,-1 z m 4,0 1,0 0,1 -1,0 0,-1 z m -20.5,3 a 0.50004997,0.50004997 0 0 0 -0.5,0.5 l 0,2 a 0.50004997,0.50004997 0 0 0 0.5,0.5 l 2,0 a 0.50004997,0.50004997 0 0 0 0.5,-0.5 l 0,-2 a 0.50004997,0.50004997 0 0 0 -0.5,-0.5 l -2,0 z m 4,0 a 0.50004997,0.50004997 0 0 0 -0.5,0.5 l 0,2 a 0.50004997,0.50004997 0 0 0 0.5,0.5 l 2,0 a 0.50004997,0.50004997 0 0 0 0.5,-0.5 l 0,-2 a 0.50004997,0.50004997 0 0 0 -0.5,-0.5 l -2,0 z m 4,0 a 0.50004997,0.50004997 0 0 0 -0.5,0.5 l 0,2 a 0.50004997,0.50004997 0 0 0 0.5,0.5 l 2,0 a 0.50004997,0.50004997 0 0 0 0.5,-0.5 l 0,-2 a 0.50004997,0.50004997 0 0 0 -0.5,-0.5 l -2,0 z m 4,0 a 0.50004997,0.50004997 0 0 0 -0.5,0.5 l 0,2 a 0.50004997,0.50004997 0 0 0 0.5,0.5 l 2,0 a 0.50004997,0.50004997 0 0 0 0.5,-0.5 l 0,-2 a 0.50004997,0.50004997 0 0 0 -0.5,-0.5 l -2,0 z m 8,0 a 0.50004997,0.50004997 0 0 0 -0.5,0.5 l 0,2 a 0.50004997,0.50004997 0 0 0 0.5,0.5 l 2,0 a 0.50004997,0.50004997 0 0 0 0.5,-0.5 l 0,-2 a 0.50004997,0.50004997 0 0 0 -0.5,-0.5 l -2,0 z m -2.011719,0.6836 a 0.50005,0.50005 0 0 0 -0.34375,0.1484 l -0.976563,0.9649 -0.3125,-0.3086 a 0.50005,0.50005 0 1 0 -0.703125,0.7109 l 0.664063,0.6563 a 0.50005,0.50005 0 0 0 0.703125,0 l 1.328125,-1.3125 a 0.50005,0.50005 0 0 0 -0.359375,-0.8594 z M 13.5,1029.3622 l 1,0 0,1 -1,0 0,-1 z m 4,0 1,0 0,1 -1,0 0,-1 z m 4,0 1,0 0,1 -1,0 0,-1 z m 4,0 1,0 0,1 -1,0 0,-1 z m 8,0 1,0 0,1 -1,0 0,-1 z m -20.5,3 a 0.50004997,0.50004997 0 0 0 -0.5,0.5 l 0,2 a 0.50004997,0.50004997 0 0 0 0.5,0.5 l 2,0 a 0.50004997,0.50004997 0 0 0 0.5,-0.5 l 0,-2 a 0.50004997,0.50004997 0 0 0 -0.5,-0.5 l -2,0 z m 4,0 a 0.50004997,0.50004997 0 0 0 -0.5,0.5 l 0,2 a 0.50004997,0.50004997 0 0 0 0.5,0.5 l 2,0 a 0.50004997,0.50004997 0 0 0 0.5,-0.5 l 0,-2 a 0.50004997,0.50004997 0 0 0 -0.5,-0.5 l -2,0 z m 8,0 a 0.50004997,0.50004997 0 0 0 -0.5,0.5 l 0,2 a 0.50004997,0.50004997 0 0 0 0.5,0.5 l 2,0 a 0.50004997,0.50004997 0 0 0 0.5,-0.5 l 0,-2 a 0.50004997,0.50004997 0 0 0 -0.5,-0.5 l -2,0 z m 4,0 a 0.50004997,0.50004997 0 0 0 -0.5,0.5 l 0,2 a 0.50004997,0.50004997 0 0 0 0.5,0.5 l 2,0 a 0.50004997,0.50004997 0 0 0 0.5,-0.5 l 0,-2 a 0.50004997,0.50004997 0 0 0 -0.5,-0.5 l -2,0 z m 4,0 a 0.50004997,0.50004997 0 0 0 -0.5,0.5 l 0,2 a 0.50004997,0.50004997 0 0 0 0.5,0.5 l 2,0 a 0.50004997,0.50004997 0 0 0 0.5,-0.5 l 0,-2 a 0.50004997,0.50004997 0 0 0 -0.5,-0.5 l -2,0 z m -10.011719,0.6816 a 0.50005,0.50005 0 0 0 -0.345703,0.1485 l -0.97461,0.9668 -0.3125,-0.3086 a 0.50005,0.50005 0 1 0 -0.703125,0.7109 l 0.664063,0.6563 a 0.50005,0.50005 0 0 0 0.703125,0 l 1.326172,-1.3145 a 0.50005,0.50005 0 0 0 -0.357422,-0.8594 z m -9.488281,0.3184 1,0 0,1 -1,0 0,-1 z m 4,0 1,0 0,1 -1,0 0,-1 z m 8,0 1,0 0,1 -1,0 0,-1 z m 4,0 1,0 0,1 -1,0 0,-1 z m 4,0 1,0 0,1 -1,0 0,-1 z m -20.5,3 a 0.50004997,0.50004997 0 0 0 -0.5,0.5 l 0,2 a 0.50004997,0.50004997 0 0 0 0.5,0.5 l 2,0 a 0.50004997,0.50004997 0 0 0 0.5,-0.5 l 0,-2 a 0.50004997,0.50004997 0 0 0 -0.5,-0.5 l -2,0 z m 4,0 a 0.50004997,0.50004997 0 0 0 -0.5,0.5 l 0,2 a 0.50004997,0.50004997 0 0 0 0.5,0.5 l 2,0 a 0.50004997,0.50004997 0 0 0 0.5,-0.5 l 0,-2 a 0.50004997,0.50004997 0 0 0 -0.5,-0.5 l -2,0 z m -3.5,1 1,0 0,1 -1,0 0,-1 z m 4,0 1,0 0,1 -1,0 0,-1 z m 4,0 0,1 1,0 0,-1 -1,0 z m 4,0 0,1 1,0 0,-1 -1,0 z m 4,0 0,1 1,0 0,-1 -1,0 z m 4,0 0,1 1,0 0,-1 -1,0 z" color="#000" font-family="sans-serif" font-weight="400" overflow="visible" style="line-height:normal;text-indent:0;text-align:start;text-decoration-line:none;text-decoration-style:solid;text-decoration-color:#000;text-transform:none;block-progression:tb;isolation:auto;mix-blend-mode:normal"/></g></svg>